<svg width="20" height="20" viewBox="0 0 20 20" fill="none" xmlns="http://www.w3.org/2000/svg">
<path fill-rule="evenodd" clip-rule="evenodd" d="M1.71284 4.21296C2.14261 3.78319 2.7255 3.54175 3.33329 3.54175H16.6666C17.2744 3.54175 17.8573 3.78319 18.2871 4.21296C18.7168 4.64273 18.9583 5.22563 18.9583 5.83341V7.50008C18.9583 7.84526 18.6785 8.12508 18.3333 8.12508C17.836 8.12508 17.3591 8.32263 17.0075 8.67426C16.6558 9.02589 16.4583 9.5028 16.4583 10.0001C16.4583 10.4974 16.6558 10.9743 17.0075 11.3259C17.3591 11.6775 17.836 11.8751 18.3333 11.8751C18.6785 11.8751 18.9583 12.1549 18.9583 12.5001V14.1667C18.9583 14.7745 18.7168 15.3574 18.2871 15.7872C17.8573 16.217 17.2744 16.4584 16.6666 16.4584H3.33329C2.7255 16.4584 2.14261 16.217 1.71284 15.7872C1.28307 15.3574 1.04163 14.7745 1.04163 14.1667V12.5001C1.04163 12.1549 1.32145 11.8751 1.66663 11.8751C2.16391 11.8751 2.64082 11.6775 2.99245 11.3259C3.34408 10.9743 3.54163 10.4974 3.54163 10.0001C3.54163 9.5028 3.34408 9.02589 2.99245 8.67426C2.64082 8.32262 2.16391 8.12508 1.66663 8.12508C1.32145 8.12508 1.04163 7.84526 1.04163 7.50008V5.83341C1.04163 5.22563 1.28307 4.64273 1.71284 4.21296ZM11.4583 15.2084V14.1667C11.4583 13.8216 11.1785 13.5417 10.8333 13.5417C10.4881 13.5417 10.2083 13.8216 10.2083 14.1667V15.2084H3.33329C3.05703 15.2084 2.79207 15.0987 2.59672 14.9033C2.40137 14.708 2.29163 14.443 2.29163 14.1667V13.062C2.88753 12.9403 3.43985 12.6463 3.87633 12.2098C4.46239 11.6237 4.79163 10.8289 4.79163 10.0001C4.79163 9.17128 4.46239 8.37642 3.87633 7.79037C3.43985 7.35388 2.88753 7.05985 2.29163 6.93821V5.83341C2.29163 5.55715 2.40137 5.2922 2.59672 5.09685C2.79207 4.90149 3.05703 4.79175 3.33329 4.79175H10.2083V5.83341C10.2083 6.17859 10.4881 6.45841 10.8333 6.45841C11.1785 6.45841 11.4583 6.17859 11.4583 5.83341V4.79175H16.6666C16.9429 4.79175 17.2078 4.90149 17.4032 5.09685C17.5985 5.2922 17.7083 5.55715 17.7083 5.83341V6.93821C17.1124 7.05985 16.5601 7.35388 16.1236 7.79037C15.5375 8.37642 15.2083 9.17128 15.2083 10.0001C15.2083 10.8289 15.5375 11.6237 16.1236 12.2098C16.5601 12.6463 17.1124 12.9403 17.7083 13.062V14.1667C17.7083 14.443 17.5985 14.708 17.4032 14.9033C17.2078 15.0987 16.9429 15.2084 16.6666 15.2084H11.4583ZM10.8333 8.54175C11.1785 8.54175 11.4583 8.82157 11.4583 9.16675V10.8334C11.4583 11.1786 11.1785 11.4584 10.8333 11.4584C10.4881 11.4584 10.2083 11.1786 10.2083 10.8334V9.16675C10.2083 8.82157 10.4881 8.54175 10.8333 8.54175Z" fill="white"/>
</svg>
